<svg width="50" height="50" viewBox="0 0 50 50" fill="none" xmlns="http://www.w3.org/2000/svg">
<circle cx="25" cy="25" r="25" fill="black"/>
<g clip-path="url(#clip0_5_228)">
<path d="M29.8696 10.0135C29.8122 9.94937 27.7451 10.0388 25.9462 11.9912C24.1473 13.942 24.4241 16.1796 24.4646 16.237C24.5051 16.2944 27.0296 16.3838 28.6411 14.1141C30.2527 11.8444 29.927 10.0793 29.8696 10.0135ZM35.462 29.8129C35.381 29.6509 31.5386 27.7306 31.8963 24.0383C32.2541 20.3444 34.7229 19.3319 34.7617 19.2222C34.8005 19.1125 33.7542 17.8891 32.6456 17.2697C31.8315 16.8331 30.9306 16.5829 30.008 16.5374C29.8257 16.5323 29.1929 16.3771 27.8919 16.7331C27.0346 16.9677 25.1024 17.7271 24.5709 17.7574C24.0376 17.7878 22.4514 16.8766 20.7453 16.6352C19.6535 16.4243 18.4959 16.8563 17.6673 17.1887C16.8404 17.5195 15.2677 18.4611 14.1674 20.9637C13.0672 23.4646 13.6426 27.4268 14.0544 28.6587C14.4661 29.8889 15.1091 31.9054 16.2026 33.3769C17.1746 35.0374 18.4638 36.19 19.0021 36.5815C19.5404 36.973 21.0592 37.2329 22.1122 36.6946C22.9593 36.1748 24.4882 35.8761 25.0923 35.8981C25.6947 35.92 26.8827 36.1579 28.0994 36.8076C29.063 37.1401 29.9742 37.0017 30.8872 36.6304C31.8001 36.2575 33.1214 34.8434 34.6638 31.9763C35.2494 30.6432 35.516 29.9226 35.462 29.8129Z" fill="white"/>
<path d="M29.8696 10.0135C29.8122 9.94937 27.7451 10.0388 25.9462 11.9912C24.1473 13.942 24.4241 16.1796 24.4646 16.237C24.5051 16.2944 27.0296 16.3838 28.6411 14.1141C30.2527 11.8444 29.927 10.0793 29.8696 10.0135ZM35.462 29.8129C35.381 29.6509 31.5386 27.7306 31.8963 24.0383C32.2541 20.3444 34.7229 19.3319 34.7617 19.2222C34.8005 19.1125 33.7542 17.8891 32.6456 17.2697C31.8315 16.8331 30.9306 16.5829 30.008 16.5374C29.8257 16.5323 29.1929 16.3771 27.8919 16.7331C27.0346 16.9677 25.1024 17.7271 24.5709 17.7574C24.0376 17.7878 22.4514 16.8766 20.7453 16.6352C19.6535 16.4243 18.4959 16.8563 17.6673 17.1887C16.8404 17.5195 15.2677 18.4611 14.1674 20.9637C13.0672 23.4646 13.6426 27.4268 14.0544 28.6587C14.4661 29.8889 15.1091 31.9054 16.2026 33.3769C17.1746 35.0374 18.4638 36.19 19.0021 36.5815C19.5404 36.973 21.0592 37.2329 22.1122 36.6946C22.9593 36.1748 24.4882 35.8761 25.0923 35.8981C25.6947 35.92 26.8827 36.1579 28.0994 36.8076C29.063 37.1401 29.9742 37.0017 30.8872 36.6304C31.8001 36.2575 33.1214 34.8434 34.6638 31.9763C35.2494 30.6432 35.516 29.9226 35.462 29.8129Z" fill="white"/>
</g>
<defs>
<clipPath id="clip0_5_228">
<rect width="27" height="27" fill="white" transform="translate(11 10)"/>
</clipPath>
</defs>
</svg>
