<svg width="50" height="50" viewBox="0 0 50 50" fill="none" xmlns="http://www.w3.org/2000/svg">
<circle cx="25" cy="25" r="25" fill="#EA4335"/>
<g clip-path="url(#clip0_5_224)">
<path d="M36.3175 22.8369C36.4574 23.6423 36.5272 24.4584 36.526 25.2759C36.526 28.9269 35.221 32.0139 32.95 34.1034H32.953C30.967 35.9379 28.237 36.9999 25 36.9999C21.8174 36.9999 18.7652 35.7356 16.5147 33.4852C14.2643 31.2348 13 28.1825 13 24.9999C13 21.8173 14.2643 18.7651 16.5147 16.5146C18.7652 14.2642 21.8174 12.9999 25 12.9999C27.9789 12.965 30.8558 14.0842 33.028 16.1229L29.602 19.5489C28.3636 18.3684 26.7107 17.7219 25 17.7489C21.8695 17.7489 19.21 19.8609 18.262 22.7049C17.7594 24.1952 17.7594 25.8091 18.262 27.2994H18.2665C19.219 30.1389 21.874 32.2509 25.0045 32.2509C26.6215 32.2509 28.0105 31.8369 29.0875 31.1049H29.083C29.7084 30.6906 30.2433 30.1539 30.6555 29.5272C31.0678 28.9005 31.3487 28.1967 31.4815 27.4584H25V22.8384H36.3175V22.8369Z" fill="white"/>
</g>
<defs>
<clipPath id="clip0_5_224">
<rect width="24" height="24" fill="white" transform="translate(13 13)"/>
</clipPath>
</defs>
</svg>
