<svg width="50" height="50" viewBox="0 0 50 50" fill="none" xmlns="http://www.w3.org/2000/svg">
<circle cx="25" cy="25" r="25" fill="#FFE600"/>
<path fill-rule="evenodd" clip-rule="evenodd" d="M25.4468 12C17.4701 12 11 17.1328 11 23.4694C11 27.5424 13.6814 31.1158 17.7036 33.1524L16.3403 38.2624C16.2876 38.4138 16.3328 38.588 16.4458 38.7016C16.5211 38.7772 16.6265 38.8228 16.7395 38.8228C16.8299 38.8228 16.9127 38.7848 16.9881 38.7242L22.8405 34.7498C23.6916 34.8708 24.5578 34.939 25.4392 34.939C33.4156 34.939 39.8858 29.8062 39.8858 23.4694C39.8933 17.1328 33.4232 12 25.4468 12Z" fill="#381E1E"/>
<path fill-rule="evenodd" clip-rule="evenodd" d="M16.0599 21.6836H14.4643C14.2429 21.6836 14.0597 21.63 13.8994 21.5306C13.7391 21.4312 13.6475 21.2858 13.6093 21.1024C13.6017 21.0564 13.594 20.9952 13.5864 20.9418C13.5864 20.7124 13.6704 20.5288 13.8383 20.3988C14.0063 20.2688 14.2124 20.2 14.4643 20.2H19.3349C19.5564 20.2 19.7472 20.2536 19.9 20.353C20.0603 20.4524 20.1594 20.59 20.1976 20.7812C20.2054 20.8348 20.2129 20.8882 20.2054 20.9418C20.2054 21.1788 20.1214 21.3624 19.961 21.4924C19.8007 21.6224 19.5946 21.6836 19.3349 21.6836H17.7471V27.1818C17.7471 27.4418 17.6707 27.6558 17.518 27.8164C17.3653 27.977 17.1592 28.0536 16.8997 28.0536C16.6859 28.0536 16.5103 27.9924 16.3576 27.8776C16.2049 27.7552 16.1133 27.6024 16.0752 27.3958C16.0599 27.3194 16.0599 27.2506 16.0599 27.1742V21.6836Z" fill="#FFE600"/>
<path fill-rule="evenodd" clip-rule="evenodd" d="M20.663 20.725C20.7308 20.5376 20.8289 20.4026 20.9648 20.32C21.1006 20.2376 21.2666 20.2 21.4781 20.2H21.878C22.0968 20.2 22.2779 20.245 22.4213 20.3276C22.5647 20.41 22.6853 20.5826 22.7685 20.83L24.7833 26.6276C24.8513 26.8076 24.8965 26.9576 24.9192 27.0924C24.9343 27.175 24.9494 27.2424 24.9494 27.295C24.9494 27.505 24.8664 27.685 24.7154 27.8276C24.5644 27.9776 24.3758 28.045 24.1645 28.045C23.7796 28.045 23.5307 27.8876 23.4175 27.5724L22.9873 26.3124H20.3007L19.8705 27.5724C19.7649 27.8876 19.5158 28.045 19.1235 28.045C18.9273 28.045 18.7612 28 18.633 27.895C18.4971 27.7974 18.4141 27.6474 18.3764 27.4674C18.3613 27.415 18.3613 27.355 18.3613 27.295C18.3613 27.2124 18.3688 27.1076 18.4065 26.9876C18.4367 26.8674 18.4745 26.7474 18.5198 26.635L20.663 20.725ZM21.6667 22.0674H21.644L20.663 25.1124H22.6099L21.6667 22.0674Z" fill="#FFE600"/>
<path fill-rule="evenodd" clip-rule="evenodd" d="M25.133 21.0494C25.133 20.796 25.207 20.5874 25.3546 20.431C25.5025 20.2746 25.702 20.2 25.9533 20.2C26.1602 20.2 26.3375 20.2596 26.4779 20.3714C26.6184 20.4832 26.7145 20.6396 26.7513 20.8334C26.7662 20.9078 26.7736 20.975 26.7662 21.0494V26.4142H29.4929C29.7147 26.4142 29.8993 26.4588 30.0471 26.5632C30.195 26.66 30.2911 26.8016 30.3205 26.9804C30.3354 27.025 30.3428 27.0848 30.3428 27.1368C30.3428 27.3678 30.2614 27.5466 30.0989 27.6658C29.9363 27.7926 29.7368 27.8522 29.4929 27.8522H26.0864C25.8351 27.8522 25.6282 27.8 25.473 27.6956C25.3178 27.5914 25.2144 27.4274 25.1626 27.189C25.1404 27.0922 25.133 26.9804 25.1256 26.8538L25.133 21.0494Z" fill="#FFE600"/>
<path fill-rule="evenodd" clip-rule="evenodd" d="M30.4974 21.055C30.4974 20.8 30.5736 20.59 30.7258 20.4326C30.8782 20.275 31.0837 20.2 31.3425 20.2C31.5558 20.2 31.7309 20.26 31.8831 20.3724C32.0355 20.485 32.1268 20.6424 32.1648 20.8376C32.1801 20.9124 32.1877 20.98 32.1801 21.055L32.1877 23.5674L34.83 20.575C34.9517 20.4474 35.0506 20.3576 35.1497 20.29C35.2486 20.23 35.363 20.2 35.4998 20.2C35.6827 20.2 35.8502 20.2526 36.0024 20.35C36.1548 20.4474 36.2461 20.5826 36.2841 20.755C36.2841 20.7624 36.2919 20.785 36.2994 20.8224C36.2994 20.845 36.2994 20.875 36.307 20.89C36.307 21.01 36.2766 21.115 36.231 21.205C36.1777 21.3026 36.109 21.3924 36.0328 21.4826L34.3045 23.3424L36.3452 26.53L36.4061 26.6276C36.5432 26.845 36.6269 27.0026 36.6496 27.1076C36.6496 27.115 36.6574 27.1376 36.6649 27.16C36.6649 27.19 36.6649 27.205 36.6649 27.2124C36.6649 27.505 36.5812 27.7224 36.4136 27.85C36.2461 27.9776 36.0406 28.045 35.8044 28.045C35.6294 28.045 35.4923 28.015 35.3856 27.955C35.2792 27.8876 35.1648 27.775 35.0584 27.595L33.1166 24.52L32.1954 25.465L32.203 27.1826C32.203 27.4376 32.1268 27.6474 31.9746 27.805C31.8222 27.9624 31.6167 28.0376 31.3578 28.0376C31.1446 28.0376 30.9619 27.9776 30.8171 27.865C30.6725 27.745 30.5736 27.595 30.5354 27.3924C30.5203 27.3174 30.5203 27.25 30.5203 27.175L30.4974 21.055Z" fill="#FFE600"/>
</svg>
