<svg width="50" height="50" viewBox="0 0 50 50" fill="none" xmlns="http://www.w3.org/2000/svg">
<circle cx="25" cy="25" r="25" fill="#00C536"/>
<path fill-rule="evenodd" clip-rule="evenodd" d="M20.9174 13.0721C17.9511 12.9381 14.9756 13.0338 12 13.0242C12.019 21.0097 12.0095 28.9953 12.0095 36.9808C14.9756 37 17.9511 36.9904 20.9174 36.9808C20.9647 33.0264 20.8602 29.0623 20.9647 25.0983C21.9439 26.4675 22.8281 27.9037 23.8264 29.2538C25.4899 31.8582 27.3724 34.3094 28.9694 36.9521C31.9641 37.0287 34.9493 36.9521 37.9437 37C37.9722 36.6266 38.0103 36.2531 38.0103 35.8797C37.9629 28.258 38.0483 20.6363 37.9722 13.0147C35.0158 12.9955 32.0591 13.0242 29.1025 13.0051C29.0836 16.9883 29.1216 20.9714 29.074 24.9451C26.3267 21.0193 23.7314 16.9596 20.9174 13.0721Z" fill="white"/>
</svg>
