<svg width="20" height="20" viewBox="0 0 20 20" fill="none" xmlns="http://www.w3.org/2000/svg">
<g clip-path="url(#clip0_9_242)">
<path d="M14.6776 12.9299C15.888 11.2782 16.4301 9.23049 16.1955 7.19632C15.9609 5.16214 14.9669 3.29155 13.4123 1.95879C11.8578 0.626033 9.85733 -0.0706141 7.81119 0.00822737C5.76505 0.0870688 3.82413 0.935584 2.37673 2.38402C0.929335 3.83245 0.0822089 5.77398 0.0048316 7.82017C-0.0725457 9.86637 0.625532 11.8663 1.95941 13.4199C3.29328 14.9735 5.16458 15.9662 7.19892 16.1994C9.23326 16.4325 11.2806 15.8889 12.9314 14.6774H12.9301C12.9676 14.7274 13.0076 14.7749 13.0526 14.8211L17.8651 19.6336C18.0995 19.8682 18.4175 20 18.7491 20.0001C19.0807 20.0003 19.3987 19.8686 19.6333 19.6343C19.8678 19.3999 19.9997 19.0819 19.9998 18.7503C19.9999 18.4187 19.8683 18.1007 19.6339 17.8661L14.8214 13.0536C14.7767 13.0084 14.7286 12.9666 14.6776 12.9286V12.9299ZM15.0001 8.12488C15.0001 9.02772 14.8223 9.92172 14.4768 10.7558C14.1313 11.5899 13.6249 12.3478 12.9865 12.9862C12.3481 13.6246 11.5902 14.1311 10.7561 14.4766C9.92198 14.8221 9.02798 14.9999 8.12514 14.9999C7.22231 14.9999 6.32831 14.8221 5.4942 14.4766C4.66008 14.1311 3.90219 13.6246 3.26379 12.9862C2.62538 12.3478 2.11897 11.5899 1.77347 10.7558C1.42797 9.92172 1.25015 9.02772 1.25015 8.12488C1.25015 6.30152 1.97447 4.55283 3.26379 3.26352C4.5531 1.97421 6.30178 1.24988 8.12514 1.24988C9.94851 1.24988 11.6972 1.97421 12.9865 3.26352C14.2758 4.55283 15.0001 6.30152 15.0001 8.12488Z" fill="#555555"/>
</g>
<defs>
<clipPath id="clip0_9_242">
<rect width="20" height="20" fill="white"/>
</clipPath>
</defs>
</svg>
