<svg width="50" height="50" viewBox="0 0 50 50" fill="none" xmlns="http://www.w3.org/2000/svg">
<circle cx="25" cy="25" r="25" fill="#FFE600"/>
<path fill-rule="evenodd" clip-rule="evenodd" d="M25.4468 12C17.4701 12 11 17.1328 11 23.4694C11 27.5424 13.6814 31.1158 17.7036 33.1524L16.3403 38.2624C16.2876 38.4138 16.3328 38.588 16.4458 38.7016C16.5211 38.7772 16.6265 38.8228 16.7395 38.8228C16.8299 38.8228 16.9127 38.7848 16.9881 38.7242L22.8405 34.7498C23.6916 34.8708 24.5578 34.939 25.4392 34.939C33.4156 34.939 39.8858 29.8062 39.8858 23.4694C39.8933 17.1328 33.4232 12 25.4468 12Z" fill="#381E1E"/>
<path fill-rule="evenodd" clip-rule="evenodd" d="M16.0599 21.6836H14.4644C14.243 21.6836 14.0598 21.63 13.8994 21.5306C13.7391 21.4312 13.6475 21.2858 13.6093 21.1024C13.6017 21.0564 13.5941 20.9952 13.5864 20.9418C13.5864 20.7124 13.6704 20.5288 13.8384 20.3988C14.0063 20.2688 14.2124 20.2 14.4644 20.2H19.335C19.5564 20.2 19.7472 20.2536 19.9 20.353C20.0604 20.4524 20.1594 20.59 20.1976 20.7812C20.2054 20.8348 20.2129 20.8882 20.2054 20.9418C20.2054 21.1788 20.1214 21.3624 19.9611 21.4924C19.8007 21.6224 19.5946 21.6836 19.335 21.6836H17.7471V27.1818C17.7471 27.4418 17.6707 27.6558 17.5181 27.8164C17.3654 27.977 17.1592 28.0536 16.8997 28.0536C16.6859 28.0536 16.5103 27.9924 16.3577 27.8776C16.205 27.7552 16.1134 27.6024 16.0752 27.3958C16.0599 27.3194 16.0599 27.2506 16.0599 27.1742V21.6836Z" fill="#FFE600"/>
<path fill-rule="evenodd" clip-rule="evenodd" d="M20.663 20.725C20.7309 20.5376 20.8289 20.4026 20.9648 20.32C21.1007 20.2376 21.2666 20.2 21.4781 20.2H21.878C22.0969 20.2 22.2779 20.245 22.4214 20.3276C22.5648 20.41 22.6854 20.5826 22.7685 20.83L24.7833 26.6276C24.8514 26.8076 24.8965 26.9576 24.9192 27.0924C24.9343 27.175 24.9495 27.2424 24.9495 27.295C24.9495 27.505 24.8665 27.685 24.7155 27.8276C24.5645 27.9776 24.3759 28.045 24.1646 28.045C23.7796 28.045 23.5307 27.8876 23.4175 27.5724L22.9874 26.3124H20.3007L19.8706 27.5724C19.7649 27.8876 19.5159 28.045 19.1235 28.045C18.9273 28.045 18.7612 28 18.6331 27.895C18.4972 27.7974 18.4141 27.6474 18.3764 27.4674C18.3613 27.415 18.3613 27.355 18.3613 27.295C18.3613 27.2124 18.3689 27.1076 18.4066 26.9876C18.4368 26.8674 18.4745 26.7474 18.5198 26.635L20.663 20.725ZM21.6667 22.0674H21.6441L20.663 25.1124H22.61L21.6667 22.0674Z" fill="#FFE600"/>
<path fill-rule="evenodd" clip-rule="evenodd" d="M25.1331 21.0494C25.1331 20.796 25.2071 20.5874 25.3547 20.431C25.5025 20.2746 25.7021 20.2 25.9534 20.2C26.1603 20.2 26.3376 20.2596 26.478 20.3714C26.6185 20.4832 26.7146 20.6396 26.7514 20.8334C26.7663 20.9078 26.7737 20.975 26.7663 21.0494V26.4142H29.4929C29.7148 26.4142 29.8994 26.4588 30.0472 26.5632C30.1951 26.66 30.2911 26.8016 30.3206 26.9804C30.3355 27.025 30.3429 27.0848 30.3429 27.1368C30.3429 27.3678 30.2615 27.5466 30.099 27.6658C29.9364 27.7926 29.7369 27.8522 29.4929 27.8522H26.0865C25.8352 27.8522 25.6283 27.8 25.4731 27.6956C25.3179 27.5914 25.2145 27.4274 25.1627 27.189C25.1405 27.0922 25.1331 26.9804 25.1257 26.8538L25.1331 21.0494Z" fill="#FFE600"/>
<path fill-rule="evenodd" clip-rule="evenodd" d="M30.4973 21.055C30.4973 20.8 30.5735 20.59 30.7257 20.4326C30.8781 20.275 31.0836 20.2 31.3425 20.2C31.5557 20.2 31.7308 20.26 31.883 20.3724C32.0354 20.485 32.1267 20.6424 32.1647 20.8376C32.1801 20.9124 32.1876 20.98 32.1801 21.055L32.1876 23.5674L34.8299 20.575C34.9517 20.4474 35.0506 20.3576 35.1496 20.29C35.2485 20.23 35.3629 20.2 35.4998 20.2C35.6826 20.2 35.8501 20.2526 36.0023 20.35C36.1547 20.4474 36.2461 20.5826 36.2841 20.755C36.2841 20.7624 36.2918 20.785 36.2994 20.8224C36.2994 20.845 36.2994 20.875 36.3069 20.89C36.3069 21.01 36.2765 21.115 36.2309 21.205C36.1776 21.3026 36.109 21.3924 36.0328 21.4826L34.3045 23.3424L36.3451 26.53L36.406 26.6276C36.5431 26.845 36.6269 27.0026 36.6495 27.1076C36.6495 27.115 36.6573 27.1376 36.6649 27.16C36.6649 27.19 36.6649 27.205 36.6649 27.2124C36.6649 27.505 36.5811 27.7224 36.4136 27.85C36.2461 27.9776 36.0405 28.045 35.8044 28.045C35.6293 28.045 35.4922 28.015 35.3856 27.955C35.2791 27.8876 35.1647 27.775 35.0583 27.595L33.1165 24.52L32.1954 25.465L32.2029 27.1826C32.2029 27.4376 32.1267 27.6474 31.9745 27.805C31.8221 27.9624 31.6166 28.0376 31.3578 28.0376C31.1445 28.0376 30.9619 27.9776 30.817 27.865C30.6724 27.745 30.5735 27.595 30.5353 27.3924C30.5202 27.3174 30.5202 27.25 30.5202 27.175L30.4973 21.055Z" fill="#FFE600"/>
</svg>
